<?xml version="1.0" encoding="UTF-8" standalone="no"?>
<svg
   xmlns:dc="http://purl.org/dc/elements/1.1/"
   xmlns:cc="http://creativecommons.org/ns#"
   xmlns:rdf="http://www.w3.org/1999/02/22-rdf-syntax-ns#"
   xmlns:svg="http://www.w3.org/2000/svg"
   xmlns="http://www.w3.org/2000/svg"
   xmlns:sodipodi="http://sodipodi.sourceforge.net/DTD/sodipodi-0.dtd"
   xmlns:inkscape="http://www.inkscape.org/namespaces/inkscape"
   version="1.1"
   id="Calque_1"
   x="0px"
   y="0px"
   width="100px"
   height="100px"
   viewBox="0 0 100 100"
   enable-background="new 0 0 100 100"
   xml:space="preserve"
   inkscape:version="0.48.1 r9760"
   sodipodi:docname="noun_project_1181.svg"><metadata
   id="metadata9"><rdf:RDF><cc:Work
       rdf:about=""><dc:format>image/svg+xml</dc:format><dc:type
         rdf:resource="http://purl.org/dc/dcmitype/StillImage" /><dc:title></dc:title></cc:Work></rdf:RDF></metadata><defs
   id="defs7" /><sodipodi:namedview
   pagecolor="#ffffff"
   bordercolor="#666666"
   borderopacity="1"
   objecttolerance="10"
   gridtolerance="10"
   guidetolerance="10"
   inkscape:pageopacity="0"
   inkscape:pageshadow="2"
   inkscape:window-width="640"
   inkscape:window-height="480"
   id="namedview5"
   showgrid="false"
   inkscape:zoom="3.19"
   inkscape:cx="50"
   inkscape:cy="54.231975"
   inkscape:window-x="0"
   inkscape:window-y="0"
   inkscape:window-maximized="0"
   inkscape:current-layer="Calque_1" />
<path
   d="M76.344,55.214h4.724v-9.887c0-1.399-1.135-2.536-2.536-2.536h-9.889V32.633c0-9.983-8.123-18.108-18.107-18.108  c-9.986,0-18.109,8.125-18.109,18.108v10.158h-9.892c-1.398,0-2.534,1.137-2.534,2.536v9.887h42.224  c1.302,0,2.352,1.054,2.352,2.354c0,1.299-1.05,2.352-2.352,2.352H20v8.097h42.224c1.302,0,2.352,1.055,2.352,2.352  c0,1.302-1.05,2.355-2.352,2.355H20v10.083c0,1.4,1.136,2.536,2.534,2.536h55.997c1.401,0,2.536-1.136,2.536-2.536V72.723h-4.724  c-1.302,0-2.354-1.054-2.354-2.355c0-1.297,1.052-2.352,2.354-2.352h4.724v-8.097h-4.724c-1.302,0-2.354-1.053-2.354-2.352  C73.99,56.268,75.042,55.214,76.344,55.214z M63.572,42.791H37.494V32.633c0-7.188,5.85-13.036,13.041-13.036  c7.188,0,13.037,5.848,13.037,13.036V42.791z"
   id="path3" />
</svg>