<?xml version="1.0" encoding="UTF-8" standalone="no"?>
<!-- Generator: Adobe Illustrator 14.0.0, SVG Export Plug-In . SVG Version: 6.00 Build 43363)  -->

<svg
   xmlns:dc="http://purl.org/dc/elements/1.1/"
   xmlns:cc="http://creativecommons.org/ns#"
   xmlns:rdf="http://www.w3.org/1999/02/22-rdf-syntax-ns#"
   xmlns:svg="http://www.w3.org/2000/svg"
   xmlns="http://www.w3.org/2000/svg"
   xmlns:sodipodi="http://sodipodi.sourceforge.net/DTD/sodipodi-0.dtd"
   xmlns:inkscape="http://www.inkscape.org/namespaces/inkscape"
   version="1.0"
   id="Layer_1"
   x="0px"
   y="0px"
   width="47.716px"
   height="100px"
   viewBox="0 0 47.716 100"
   enable-background="new 0 0 47.716 100"
   xml:space="preserve"
   inkscape:version="0.48.1 r9760"
   sodipodi:docname="noun_project_413.svg"
   inkscape:export-filename="/home/pat/gitreps/shapado/app/assets/images/ribbon-medium.png"
   inkscape:export-xdpi="22.629999"
   inkscape:export-ydpi="22.629999"><metadata
   id="metadata9"><rdf:RDF><cc:Work
       rdf:about=""><dc:format>image/svg+xml</dc:format><dc:type
         rdf:resource="http://purl.org/dc/dcmitype/StillImage" /><dc:title></dc:title></cc:Work></rdf:RDF></metadata><defs
   id="defs7" /><sodipodi:namedview
   pagecolor="#ffffff"
   bordercolor="#666666"
   borderopacity="1"
   objecttolerance="10"
   gridtolerance="10"
   guidetolerance="10"
   inkscape:pageopacity="0"
   inkscape:pageshadow="2"
   inkscape:window-width="1920"
   inkscape:window-height="1025"
   id="namedview5"
   showgrid="false"
   inkscape:zoom="6.38"
   inkscape:cx="-8.7395363"
   inkscape:cy="49.315682"
   inkscape:window-x="-2"
   inkscape:window-y="-3"
   inkscape:window-maximized="1"
   inkscape:current-layer="Layer_1" />
<path
   d="M47.716,23.888c0-1.888-1.147-3.507-2.782-4.199c0.811-0.824,1.312-1.952,1.312-3.199c0-2.505-2.02-4.536-4.52-4.557  c0.215-0.529,0.335-1.105,0.335-1.711c0-2.518-2.04-4.559-4.559-4.559c-0.602,0-1.174,0.119-1.7,0.331  c-0.021-2.5-2.052-4.521-4.558-4.521c-1.242,0-2.367,0.499-3.189,1.306C27.362,1.145,25.744,0,23.858,0  c-1.886,0-3.504,1.145-4.197,2.779c-0.823-0.807-1.948-1.306-3.191-1.306c-2.505,0-4.536,2.02-4.556,4.521  c-0.526-0.211-1.099-0.331-1.701-0.331c-2.518,0-4.559,2.041-4.559,4.559c0,0.605,0.121,1.182,0.334,1.711  C3.49,11.954,1.47,13.984,1.47,16.489c0,1.247,0.501,2.375,1.312,3.199C1.148,20.38,0.002,21.998,0,23.884v-0.001  c0,0.001,0,0.004,0,0.005c0,0.002,0,0.004,0,0.006v-0.001c0.001,1.887,1.148,3.504,2.782,4.196C1.972,28.912,1.47,30.04,1.47,31.287  c0,2.505,2.02,4.536,4.519,4.557c-0.214,0.529-0.334,1.105-0.334,1.711c0,2.519,2.041,4.559,4.559,4.559  c0.602,0,1.175-0.119,1.701-0.331c0.017,2.001,1.321,3.691,3.125,4.288L3.588,97.133l7.872-5.165L16.373,100l7.485-33.38L31.343,100  l4.913-8.031l7.872,5.165L32.677,46.071c1.805-0.597,3.109-2.287,3.126-4.288c0.526,0.212,1.099,0.331,1.7,0.331  c2.519,0,4.559-2.041,4.559-4.559c0-0.605-0.12-1.182-0.335-1.711c2.5-0.021,4.52-2.052,4.52-4.557c0-1.247-0.502-2.375-1.312-3.199  C46.569,27.396,47.716,25.777,47.716,23.888z M23.858,38.716c-8.189,0-14.828-6.639-14.828-14.829  c0-8.188,6.639-14.827,14.828-14.827c8.188,0,14.827,6.639,14.827,14.827C38.685,32.078,32.046,38.716,23.858,38.716z"
   id="path3"
   style="fill:#6d6d6d;fill-opacity:1" />
</svg>