<?xml version="1.0" encoding="UTF-8" standalone="no"?>
<!-- Created with Inkscape (http://www.inkscape.org/) -->

<svg
   xmlns:dc="http://purl.org/dc/elements/1.1/"
   xmlns:cc="http://creativecommons.org/ns#"
   xmlns:rdf="http://www.w3.org/1999/02/22-rdf-syntax-ns#"
   xmlns:svg="http://www.w3.org/2000/svg"
   xmlns="http://www.w3.org/2000/svg"
   xmlns:sodipodi="http://sodipodi.sourceforge.net/DTD/sodipodi-0.dtd"
   xmlns:inkscape="http://www.inkscape.org/namespaces/inkscape"
   width="64.000023"
   height="192"
   id="svg6402"
   version="1.1"
   inkscape:version="0.48.2 r9819"
   sodipodi:docname="ribbons.svg"
   inkscape:export-filename="/home/kuadrosx/Projects/ricodigo/shapado/app/assets/images/ribbons.png"
   inkscape:export-xdpi="90"
   inkscape:export-ydpi="90">
  <defs
     id="defs6404" />
  <sodipodi:namedview
     id="base"
     pagecolor="#ffffff"
     bordercolor="#666666"
     borderopacity="1.0"
     inkscape:pageopacity="0.0"
     inkscape:pageshadow="2"
     inkscape:zoom="3.1720325"
     inkscape:cx="2.5799555"
     inkscape:cy="71.358394"
     inkscape:document-units="px"
     inkscape:current-layer="layer1"
     showgrid="false"
     fit-margin-top="0"
     fit-margin-left="0"
     fit-margin-right="0"
     fit-margin-bottom="0"
     showguides="true"
     inkscape:guide-bbox="true"
     inkscape:window-width="1362"
     inkscape:window-height="671"
     inkscape:window-x="0"
     inkscape:window-y="35"
     inkscape:window-maximized="1" />
  <metadata
     id="metadata6407">
    <rdf:RDF>
      <cc:Work
         rdf:about="">
        <dc:format>image/svg+xml</dc:format>
        <dc:type
           rdf:resource="http://purl.org/dc/dcmitype/StillImage" />
        <dc:title></dc:title>
      </cc:Work>
    </rdf:RDF>
  </metadata>
  <g
     inkscape:label="Layer 1"
     inkscape:groupmode="layer"
     id="layer1"
     transform="translate(-192.88904,-371.21928)">
    <rect
       style="opacity:0.89224135;fill:#0044aa;fill-opacity:0;stroke:none"
       id="rect5498"
       width="64.000023"
       height="64.000023"
       x="192.88904"
       y="499.21927"
       ry="0"
       inkscape:export-filename="/home/kuadrosx/Projects/ricodigo/shapado/app/assets/images/medall.png"
       inkscape:export-xdpi="90"
       inkscape:export-ydpi="90" />
    <g
       id="g6326"
       transform="matrix(1.6027739,0,0,1.6027739,139.60962,-850.00571)">
      <path
         inkscape:export-ydpi="90"
         inkscape:export-xdpi="90"
         inkscape:export-filename="/home/kuadrosx/Projects/ricodigo/shapado/app/assets/images/medall.png"
         transform="matrix(0.2381742,0,0,0.2381742,56.436878,847.15325)"
         d="m 5.7203388,37.60593 c 0,10.940387 -8.6317983,19.809323 -19.2796608,19.809323 -10.647863,0 -19.279662,-8.868936 -19.279662,-19.809323 0,-10.940386 8.631799,-19.809322 19.279662,-19.809322 10.6478625,0 19.2796608,8.868936 19.2796608,19.809322 z"
         sodipodi:ry="19.809322"
         sodipodi:rx="19.279661"
         sodipodi:cy="37.60593"
         sodipodi:cx="-13.559322"
         id="path6176"
         style="opacity:0.89224135;fill:#ff6600;fill-opacity:1;stroke:none"
         sodipodi:type="arc" />
      <path
         inkscape:export-ydpi="90"
         inkscape:export-xdpi="90"
         inkscape:export-filename="/home/kuadrosx/Projects/ricodigo/shapado/app/assets/images/medall.png"
         style="fill:#000000"
         id="path5656"
         d="m 59.161749,855.25499 c 0,-0.47117 -0.286263,-0.87525 -0.694315,-1.04795 0.202401,-0.20564 0.327438,-0.48718 0.327438,-0.79837 0,-0.62519 -0.504138,-1.13209 -1.128073,-1.13731 0.05366,-0.13203 0.0836,-0.2758 0.0836,-0.42705 0,-0.62843 -0.509136,-1.13778 -1.137814,-1.13778 -0.150238,0 -0.292997,0.0297 -0.424277,0.0826 -0.005,-0.62395 -0.512125,-1.1283 -1.137558,-1.1283 -0.309973,0 -0.590746,0.1245 -0.795893,0.3259 -0.172958,-0.40778 -0.576765,-0.69355 -1.047465,-0.69355 -0.4707,0 -0.874506,0.28577 -1.047465,0.69355 -0.205401,-0.2014 -0.486168,-0.3259 -0.79639,-0.3259 -0.625185,0 -1.132074,0.50412 -1.137061,1.1283 -0.13128,-0.0524 -0.274287,-0.0826 -0.424527,-0.0826 -0.628428,0 -1.137813,0.50935 -1.137813,1.13778 0,0.15101 0.03018,0.29502 0.08336,0.42705 -0.623435,0.005 -1.127574,0.51188 -1.127574,1.13707 0,0.3112 0.125037,0.59269 0.327438,0.79837 -0.407803,0.1727 -0.693817,0.5765 -0.694314,1.04719 v -2.4e-4 c 0,2.4e-4 0,10e-4 0,10e-4 0,5.4e-4 0,0.001 0,0.001 v -2.4e-4 c 2.49e-4,0.47092 0.286511,0.87449 0.694314,1.04719 -0.202152,0.20543 -0.327438,0.48693 -0.327438,0.79819 0,0.62519 0.504139,1.13204 1.127824,1.13731 -0.05342,0.13198 -0.08336,0.27575 -0.08336,0.42699 0,0.62868 0.509386,1.13784 1.137814,1.13784 0.150239,0 0.293247,-0.0299 0.424527,-0.0826 0.004,0.49943 0.329685,0.92121 0.779919,1.0702 l -2.858131,12.74376 1.964652,-1.28904 1.226158,2.00457 1.868068,-8.33082 1.868068,8.33082 1.226158,-2.00433 1.964648,1.28903 -2.857877,-12.74399 c 0.450482,-0.14899 0.775928,-0.57077 0.780173,-1.0702 0.131275,0.0531 0.274282,0.0826 0.424274,0.0826 0.628676,0 1.137813,-0.50939 1.137813,-1.13784 0,-0.151 -0.02994,-0.29501 -0.0836,-0.42699 0.623936,-0.005 1.128073,-0.51212 1.128073,-1.13731 0,-0.31126 -0.125285,-0.59276 -0.327438,-0.79842 0.407803,-0.1727 0.694066,-0.57675 0.694066,-1.04821 z m -5.95435,3.70073 c -2.043765,0 -3.700691,-1.65697 -3.700691,-3.70097 0,-2.04351 1.656926,-3.70041 3.700691,-3.70041 2.043517,0 3.700439,1.6569 3.700439,3.70041 0,2.0443 -1.656922,3.70097 -3.700439,3.70097 z"
         inkscape:connector-curvature="0" />
    </g>
    <rect
       style="opacity:0.89224135;fill:#0044aa;fill-opacity:0;stroke:none"
       id="rect5498-5"
       width="64.000023"
       height="64.000023"
       x="192.88904"
       y="435.21912"
       ry="0"
       inkscape:export-filename="/home/kuadrosx/Projects/ricodigo/shapado/app/assets/images/medall.png"
       inkscape:export-xdpi="90"
       inkscape:export-ydpi="90" />
    <g
       id="g6330"
       transform="matrix(1.6027739,0,0,1.6027739,85.205843,-912.91286)">
      <path
         inkscape:export-ydpi="90"
         inkscape:export-xdpi="90"
         inkscape:export-filename="/home/kuadrosx/Projects/ricodigo/shapado/app/assets/images/medall.png"
         transform="matrix(0.2381742,0,0,0.2381742,90.380392,846.47132)"
         d="m 5.7203388,37.60593 c 0,10.940387 -8.6317983,19.809323 -19.2796608,19.809323 -10.647863,0 -19.279662,-8.868936 -19.279662,-19.809323 0,-10.940386 8.631799,-19.809322 19.279662,-19.809322 10.6478625,0 19.2796608,8.868936 19.2796608,19.809322 z"
         sodipodi:ry="19.809322"
         sodipodi:rx="19.279661"
         sodipodi:cy="37.60593"
         sodipodi:cx="-13.559322"
         id="path6176-0"
         style="opacity:0.89224135;fill:#ffcc00;fill-opacity:1;stroke:none"
         sodipodi:type="arc" />
      <path
         inkscape:export-ydpi="90"
         inkscape:export-xdpi="90"
         inkscape:export-filename="/home/kuadrosx/Projects/ricodigo/shapado/app/assets/images/medall.png"
         style="fill:#000000"
         id="path5656-3"
         d="m 93.105263,854.57306 c 0,-0.47117 -0.286263,-0.87525 -0.694315,-1.04795 0.202401,-0.20564 0.327438,-0.48718 0.327438,-0.79837 0,-0.62519 -0.504138,-1.13209 -1.128073,-1.13731 0.05366,-0.13203 0.0836,-0.2758 0.0836,-0.42705 0,-0.62843 -0.509136,-1.13778 -1.137814,-1.13778 -0.150238,0 -0.292997,0.0297 -0.424277,0.0826 -0.005,-0.62395 -0.512125,-1.1283 -1.137558,-1.1283 -0.309973,0 -0.590746,0.1245 -0.795893,0.3259 -0.172958,-0.40778 -0.576765,-0.69355 -1.047465,-0.69355 -0.4707,0 -0.874506,0.28577 -1.047465,0.69355 -0.205401,-0.2014 -0.486168,-0.3259 -0.79639,-0.3259 -0.625185,0 -1.132074,0.50412 -1.137061,1.1283 -0.13128,-0.0524 -0.274287,-0.0826 -0.424527,-0.0826 -0.628428,0 -1.137813,0.50935 -1.137813,1.13778 0,0.15101 0.03018,0.29502 0.08336,0.42705 -0.623435,0.005 -1.127574,0.51188 -1.127574,1.13707 0,0.3112 0.125037,0.59269 0.327438,0.79837 -0.407803,0.1727 -0.693817,0.5765 -0.694314,1.04719 v -2.4e-4 c 0,2.4e-4 0,10e-4 0,10e-4 0,5.4e-4 0,10e-4 0,10e-4 v -2.4e-4 c 2.49e-4,0.47092 0.286511,0.87449 0.694314,1.04719 -0.202152,0.20543 -0.327438,0.48693 -0.327438,0.79819 0,0.62519 0.504139,1.13204 1.127824,1.13731 -0.05342,0.13198 -0.08336,0.27575 -0.08336,0.42699 0,0.62868 0.509386,1.13784 1.137814,1.13784 0.150239,0 0.293247,-0.0299 0.424527,-0.0826 0.004,0.49943 0.329685,0.92121 0.779919,1.0702 l -2.858131,12.74376 1.964652,-1.28904 1.226158,2.00457 1.868068,-8.33082 1.868068,8.33082 1.226158,-2.00433 1.964648,1.28903 -2.857877,-12.74399 c 0.450482,-0.14899 0.775928,-0.57077 0.780173,-1.0702 0.131275,0.0531 0.274282,0.0826 0.424274,0.0826 0.628676,0 1.137813,-0.50939 1.137813,-1.13784 0,-0.151 -0.02994,-0.29501 -0.0836,-0.42699 0.623936,-0.005 1.128073,-0.51212 1.128073,-1.13731 0,-0.31126 -0.125285,-0.59276 -0.327438,-0.79842 0.407803,-0.1727 0.694066,-0.57675 0.694066,-1.04821 z m -5.95435,3.70073 c -2.043765,0 -3.700691,-1.65697 -3.700691,-3.70097 0,-2.04351 1.656926,-3.70041 3.700691,-3.70041 2.043517,0 3.700439,1.6569 3.700439,3.70041 0,2.0443 -1.656922,3.70097 -3.700439,3.70097 z"
         inkscape:connector-curvature="0" />
    </g>
    <rect
       style="opacity:0.89224135;fill:#0044aa;fill-opacity:0;stroke:none"
       id="rect5498-7"
       width="64.000023"
       height="64.000023"
       x="192.88904"
       y="371.21927"
       ry="0"
       inkscape:export-filename="/home/kuadrosx/Projects/ricodigo/shapado/app/assets/images/medall.png"
       inkscape:export-xdpi="90"
       inkscape:export-ydpi="90" />
    <g
       id="g6334"
       transform="matrix(1.6027739,0,0,1.6027739,22.022544,-977.47936)">
      <path
         inkscape:export-ydpi="90"
         inkscape:export-xdpi="90"
         inkscape:export-filename="/home/kuadrosx/Projects/ricodigo/shapado/app/assets/images/medall.png"
         transform="matrix(0.2381742,0,0,0.2381742,129.80159,846.82488)"
         d="m 5.7203388,37.60593 c 0,10.940387 -8.6317983,19.809323 -19.2796608,19.809323 -10.647863,0 -19.279662,-8.868936 -19.279662,-19.809323 0,-10.940386 8.631799,-19.809322 19.279662,-19.809322 10.6478625,0 19.2796608,8.868936 19.2796608,19.809322 z"
         sodipodi:ry="19.809322"
         sodipodi:rx="19.279661"
         sodipodi:cy="37.60593"
         sodipodi:cx="-13.559322"
         id="path6176-04"
         style="opacity:0.89224135;fill:#cccccc;fill-opacity:1;stroke:none"
         sodipodi:type="arc" />
      <path
         inkscape:export-ydpi="90"
         inkscape:export-xdpi="90"
         inkscape:export-filename="/home/kuadrosx/Projects/ricodigo/shapado/app/assets/images/medall.png"
         style="fill:#000000"
         id="path5656-9"
         d="m 132.52646,854.92662 c 0,-0.47117 -0.28626,-0.87525 -0.69431,-1.04795 0.2024,-0.20564 0.32743,-0.48718 0.32743,-0.79837 0,-0.62519 -0.50413,-1.13209 -1.12807,-1.13731 0.0537,-0.13203 0.0836,-0.2758 0.0836,-0.42705 0,-0.62843 -0.50914,-1.13778 -1.13781,-1.13778 -0.15024,0 -0.293,0.0297 -0.42428,0.0826 -0.005,-0.62395 -0.51213,-1.1283 -1.13756,-1.1283 -0.30997,0 -0.59074,0.1245 -0.79589,0.3259 -0.17296,-0.40778 -0.57677,-0.69355 -1.04747,-0.69355 -0.4707,0 -0.8745,0.28577 -1.04746,0.69355 -0.2054,-0.2014 -0.48617,-0.3259 -0.79639,-0.3259 -0.62519,0 -1.13208,0.50412 -1.13706,1.1283 -0.13128,-0.0524 -0.27429,-0.0826 -0.42453,-0.0826 -0.62843,0 -1.13781,0.50935 -1.13781,1.13778 0,0.15101 0.0302,0.29502 0.0834,0.42705 -0.62344,0.005 -1.12758,0.51188 -1.12758,1.13707 0,0.3112 0.12504,0.59269 0.32744,0.79837 -0.4078,0.1727 -0.69382,0.5765 -0.69431,1.04719 v -2.4e-4 c 0,2.4e-4 0,10e-4 0,10e-4 0,5.4e-4 0,10e-4 0,10e-4 v -2.4e-4 c 2.5e-4,0.47092 0.28651,0.87449 0.69431,1.04719 -0.20215,0.20543 -0.32744,0.48693 -0.32744,0.79819 0,0.62519 0.50414,1.13204 1.12783,1.13731 -0.0534,0.13198 -0.0834,0.27575 -0.0834,0.42699 0,0.62868 0.50938,1.13784 1.13781,1.13784 0.15024,0 0.29325,-0.0299 0.42453,-0.0826 0.004,0.49943 0.32968,0.92121 0.77992,1.0702 l -2.85813,12.74376 1.96465,-1.28904 1.22616,2.00457 1.86806,-8.33082 1.86807,8.33082 1.22616,-2.00433 1.96465,1.28903 -2.85788,-12.74399 c 0.45048,-0.14899 0.77593,-0.57077 0.78017,-1.0702 0.13128,0.0531 0.27429,0.0826 0.42428,0.0826 0.62867,0 1.13781,-0.50939 1.13781,-1.13784 0,-0.151 -0.0299,-0.29501 -0.0836,-0.42699 0.62394,-0.005 1.12807,-0.51212 1.12807,-1.13731 0,-0.31126 -0.12528,-0.59276 -0.32743,-0.79842 0.4078,-0.1727 0.69406,-0.57675 0.69406,-1.04821 z m -5.95435,3.70073 c -2.04376,0 -3.70069,-1.65697 -3.70069,-3.70097 0,-2.04351 1.65693,-3.70041 3.70069,-3.70041 2.04352,0 3.70044,1.6569 3.70044,3.70041 0,2.0443 -1.65692,3.70097 -3.70044,3.70097 z"
         inkscape:connector-curvature="0" />
    </g>
  </g>
</svg>
