<?xml version="1.0" encoding="UTF-8" standalone="no"?>
<!-- Generator: Adobe Illustrator 14.0.0, SVG Export Plug-In . SVG Version: 6.00 Build 43363)  -->

<svg
   xmlns:dc="http://purl.org/dc/elements/1.1/"
   xmlns:cc="http://creativecommons.org/ns#"
   xmlns:rdf="http://www.w3.org/1999/02/22-rdf-syntax-ns#"
   xmlns:svg="http://www.w3.org/2000/svg"
   xmlns="http://www.w3.org/2000/svg"
   xmlns:sodipodi="http://sodipodi.sourceforge.net/DTD/sodipodi-0.dtd"
   xmlns:inkscape="http://www.inkscape.org/namespaces/inkscape"
   version="1.0"
   id="Layer_1"
   x="0px"
   y="0px"
   width="100px"
   height="76.434px"
   viewBox="0 0 100 76.434"
   enable-background="new 0 0 100 76.434"
   xml:space="preserve"
   inkscape:version="0.48.1 r9760"
   sodipodi:docname="noun_project_419.svg"
   inkscape:export-filename="/home/pat/gitreps/shapado/app/assets/images/user-medium.png"
   inkscape:export-xdpi="19.799999"
   inkscape:export-ydpi="19.799999"><metadata
   id="metadata9"><rdf:RDF><cc:Work
       rdf:about=""><dc:format>image/svg+xml</dc:format><dc:type
         rdf:resource="http://purl.org/dc/dcmitype/StillImage" /><dc:title></dc:title></cc:Work></rdf:RDF></metadata><defs
   id="defs7" /><sodipodi:namedview
   pagecolor="#ffffff"
   bordercolor="#666666"
   borderopacity="1"
   objecttolerance="10"
   gridtolerance="10"
   guidetolerance="10"
   inkscape:pageopacity="0"
   inkscape:pageshadow="2"
   inkscape:window-width="1920"
   inkscape:window-height="1025"
   id="namedview5"
   showgrid="false"
   inkscape:zoom="4.1735354"
   inkscape:cx="4.7146532"
   inkscape:cy="41.451667"
   inkscape:window-x="-2"
   inkscape:window-y="-3"
   inkscape:window-maximized="1"
   inkscape:current-layer="Layer_1" />
<path
   d="M98.574,67.99C96.458,57.071,67.338,58.232,60.32,49.68c-1.48-1.805-1.48-1.805-0.488-8.507  c1.694-7.502,3.229-2.846,5.651-17.809C67.517,10.798,63.177,0,50,0S32.483,10.798,34.517,23.364  c2.422,14.963,3.956,10.307,5.651,17.809c0.992,6.702,0.992,6.702-0.488,8.507C32.662,58.232,3.542,57.071,1.426,67.99  C1.175,69.282,0,76.434,0,76.434h100C100,76.434,98.825,69.282,98.574,67.99z"
   id="path3"
   style="fill:#6d6d6d;fill-opacity:1" />
</svg>